<?xml version="1.0" encoding="UTF-8"?>
<svg xmlns="http://www.w3.org/2000/svg" xmlns:xlink="http://www.w3.org/1999/xlink" width="32px" height="32px" viewBox="0 0 32 32" version="1.1">
<g id="surface1">
<path fill="currentColor"  d="M 7.328125 5.820312 C 7.589844 6 7.773438 6.195312 7.875 6.5 C 7.882812 6.589844 7.882812 6.683594 7.882812 6.773438 C 7.882812 6.832031 7.882812 6.886719 7.882812 6.945312 C 7.882812 7.007812 7.886719 7.070312 7.886719 7.132812 C 7.886719 7.230469 7.886719 7.230469 7.886719 7.332031 C 7.886719 7.554688 7.886719 7.773438 7.886719 7.996094 C 7.886719 8.152344 7.890625 8.3125 7.890625 8.46875 C 7.890625 8.8125 7.890625 9.152344 7.894531 9.496094 C 7.894531 9.988281 7.894531 10.480469 7.898438 10.976562 C 7.902344 11.777344 7.902344 12.578125 7.90625 13.375 C 7.910156 14.15625 7.910156 14.933594 7.914062 15.710938 C 7.914062 15.757812 7.914062 15.804688 7.914062 15.855469 C 7.914062 16.097656 7.917969 16.335938 7.917969 16.578125 C 7.925781 18.570312 7.929688 20.566406 7.9375 22.5625 C 8.136719 22.363281 8.335938 22.167969 8.535156 21.96875 C 8.589844 21.914062 8.648438 21.859375 8.703125 21.800781 C 8.992188 21.511719 9.273438 21.222656 9.535156 20.914062 C 9.65625 20.777344 9.785156 20.65625 9.921875 20.535156 C 9.96875 20.492188 10.015625 20.453125 10.0625 20.410156 C 10.351562 20.1875 10.714844 20.214844 11.0625 20.25 C 11.367188 20.394531 11.53125 20.578125 11.6875 20.875 C 11.777344 21.253906 11.765625 21.539062 11.5625 21.875 C 11.449219 22.003906 11.332031 22.121094 11.207031 22.234375 C 11.089844 22.347656 10.984375 22.464844 10.878906 22.589844 C 10.511719 23.015625 10.101562 23.402344 9.703125 23.796875 C 9.167969 24.324219 9.167969 24.324219 8.667969 24.878906 C 8.453125 25.125 8.222656 25.355469 7.992188 25.585938 C 7.941406 25.636719 7.894531 25.6875 7.84375 25.738281 C 7.796875 25.785156 7.746094 25.835938 7.699219 25.882812 C 7.65625 25.925781 7.613281 25.972656 7.570312 26.015625 C 7.347656 26.199219 7.132812 26.269531 6.847656 26.269531 C 6.800781 26.269531 6.757812 26.273438 6.710938 26.273438 C 6.363281 26.21875 6.121094 26.019531 5.878906 25.773438 C 5.824219 25.71875 5.765625 25.660156 5.710938 25.605469 C 5.625 25.515625 5.625 25.515625 5.535156 25.425781 C 5.449219 25.339844 5.449219 25.339844 5.363281 25.25 C 5.121094 25.007812 4.886719 24.765625 4.664062 24.507812 C 4.347656 24.140625 4 23.808594 3.65625 23.46875 C 3.234375 23.054688 2.820312 22.640625 2.4375 22.1875 C 2.367188 22.105469 2.296875 22.027344 2.226562 21.945312 C 1.976562 21.660156 1.980469 21.4375 1.984375 21.0625 C 2.015625 20.726562 2.171875 20.574219 2.40625 20.351562 C 2.722656 20.203125 3.03125 20.1875 3.375 20.25 C 3.691406 20.421875 3.933594 20.664062 4.183594 20.921875 C 4.242188 20.980469 4.242188 20.980469 4.300781 21.039062 C 4.523438 21.265625 4.738281 21.496094 4.941406 21.742188 C 5.09375 21.910156 5.257812 22.074219 5.417969 22.234375 C 5.449219 22.265625 5.484375 22.296875 5.515625 22.328125 C 5.59375 22.40625 5.671875 22.484375 5.75 22.5625 C 5.75 22.480469 5.75 22.398438 5.75 22.3125 C 5.753906 20.355469 5.757812 18.398438 5.765625 16.441406 C 5.765625 16.203125 5.765625 15.960938 5.765625 15.71875 C 5.765625 15.671875 5.765625 15.625 5.765625 15.574219 C 5.769531 14.800781 5.769531 14.023438 5.773438 13.246094 C 5.773438 12.449219 5.773438 11.652344 5.777344 10.855469 C 5.78125 10.363281 5.78125 9.875 5.78125 9.382812 C 5.78125 9.003906 5.78125 8.628906 5.785156 8.25 C 5.785156 8.097656 5.785156 7.941406 5.785156 7.789062 C 5.785156 7.578125 5.785156 7.367188 5.789062 7.15625 C 5.789062 7.09375 5.785156 7.03125 5.785156 6.96875 C 5.789062 6.59375 5.832031 6.308594 6.09375 6.023438 C 6.480469 5.71875 6.863281 5.660156 7.328125 5.820312 Z M 7.328125 5.820312 "/>
<path fill="currentColor"  d="M 15.320312 5.742188 C 15.382812 5.738281 15.441406 5.738281 15.5 5.738281 C 15.699219 5.738281 15.902344 5.738281 16.101562 5.738281 C 16.242188 5.738281 16.386719 5.738281 16.527344 5.738281 C 16.996094 5.734375 17.46875 5.734375 17.9375 5.734375 C 18.097656 5.734375 18.257812 5.730469 18.421875 5.730469 C 19.09375 5.730469 19.765625 5.730469 20.4375 5.730469 C 20.609375 5.726562 20.785156 5.726562 20.957031 5.726562 C 21 5.726562 21.046875 5.726562 21.089844 5.726562 C 21.792969 5.726562 22.492188 5.726562 23.195312 5.722656 C 23.914062 5.71875 24.636719 5.71875 25.355469 5.71875 C 25.757812 5.71875 26.164062 5.71875 26.570312 5.714844 C 26.949219 5.714844 27.328125 5.710938 27.710938 5.714844 C 27.847656 5.714844 27.988281 5.714844 28.128906 5.710938 C 28.320312 5.710938 28.511719 5.710938 28.699219 5.710938 C 28.757812 5.710938 28.8125 5.710938 28.867188 5.710938 C 29.253906 5.714844 29.511719 5.816406 29.8125 6.0625 C 29.996094 6.289062 30.027344 6.460938 30.023438 6.75 C 30.023438 6.8125 30.023438 6.875 30.023438 6.941406 C 29.984375 7.230469 29.851562 7.429688 29.625 7.609375 C 29.320312 7.839844 29.050781 7.820312 28.683594 7.820312 C 28.59375 7.820312 28.59375 7.820312 28.503906 7.824219 C 28.308594 7.824219 28.109375 7.824219 27.910156 7.824219 C 27.769531 7.824219 27.628906 7.824219 27.488281 7.824219 C 27.101562 7.824219 26.71875 7.828125 26.332031 7.828125 C 26.089844 7.828125 25.851562 7.828125 25.609375 7.828125 C 24.945312 7.828125 24.277344 7.832031 23.613281 7.832031 C 23.441406 7.832031 23.269531 7.832031 23.09375 7.832031 C 23.03125 7.832031 23.03125 7.832031 22.964844 7.832031 C 22.269531 7.832031 21.574219 7.832031 20.878906 7.835938 C 20.164062 7.835938 19.449219 7.839844 18.734375 7.839844 C 18.335938 7.839844 17.933594 7.839844 17.535156 7.839844 C 17.15625 7.84375 16.777344 7.84375 16.402344 7.84375 C 16.261719 7.84375 16.125 7.84375 15.988281 7.84375 C 15.796875 7.84375 15.609375 7.84375 15.417969 7.84375 C 15.335938 7.84375 15.335938 7.84375 15.253906 7.84375 C 14.890625 7.839844 14.617188 7.765625 14.3125 7.5625 C 14.035156 7.269531 13.980469 7.03125 13.988281 6.640625 C 14.015625 6.335938 14.152344 6.144531 14.375 5.949219 C 14.683594 5.722656 14.953125 5.742188 15.320312 5.742188 Z M 15.320312 5.742188 "/>
<path fill="currentColor"  d="M 15.328125 11.867188 C 15.371094 11.867188 15.417969 11.867188 15.464844 11.867188 C 15.617188 11.863281 15.769531 11.863281 15.921875 11.863281 C 16.03125 11.863281 16.140625 11.863281 16.253906 11.863281 C 16.550781 11.863281 16.847656 11.863281 17.144531 11.863281 C 17.332031 11.863281 17.515625 11.863281 17.703125 11.863281 C 18.285156 11.859375 18.867188 11.859375 19.449219 11.859375 C 20.121094 11.859375 20.792969 11.859375 21.464844 11.855469 C 21.984375 11.855469 22.503906 11.855469 23.023438 11.855469 C 23.332031 11.855469 23.640625 11.855469 23.953125 11.851562 C 24.242188 11.851562 24.535156 11.851562 24.828125 11.851562 C 24.933594 11.851562 25.042969 11.851562 25.148438 11.851562 C 25.292969 11.851562 25.441406 11.851562 25.585938 11.851562 C 25.667969 11.851562 25.75 11.851562 25.835938 11.851562 C 26.179688 11.886719 26.417969 11.984375 26.675781 12.226562 C 26.882812 12.503906 26.964844 12.808594 26.917969 13.148438 C 26.816406 13.5 26.675781 13.675781 26.375 13.875 C 26.15625 13.949219 25.957031 13.945312 25.730469 13.945312 C 25.660156 13.945312 25.660156 13.945312 25.589844 13.949219 C 25.429688 13.949219 25.273438 13.949219 25.117188 13.949219 C 25.003906 13.949219 24.890625 13.949219 24.777344 13.949219 C 24.472656 13.949219 24.164062 13.953125 23.859375 13.953125 C 23.667969 13.953125 23.476562 13.953125 23.285156 13.953125 C 22.683594 13.953125 22.085938 13.957031 21.488281 13.957031 C 20.796875 13.957031 20.105469 13.957031 19.414062 13.960938 C 18.878906 13.960938 18.34375 13.964844 17.808594 13.964844 C 17.488281 13.964844 17.171875 13.964844 16.851562 13.964844 C 16.550781 13.96875 16.25 13.96875 15.949219 13.96875 C 15.839844 13.96875 15.730469 13.96875 15.621094 13.96875 C 15.46875 13.96875 15.320312 13.96875 15.167969 13.96875 C 15.101562 13.96875 15.101562 13.96875 15.035156 13.96875 C 14.726562 13.964844 14.550781 13.878906 14.3125 13.6875 C 14.046875 13.394531 13.972656 13.164062 13.976562 12.777344 C 14.027344 12.445312 14.210938 12.203125 14.472656 12.003906 C 14.761719 11.878906 15.011719 11.867188 15.328125 11.867188 Z M 15.328125 11.867188 "/>
<path fill="currentColor" d="M 15.019531 18.054688 C 15.089844 18.054688 15.160156 18.050781 15.234375 18.050781 C 15.3125 18.050781 15.390625 18.050781 15.46875 18.050781 C 15.550781 18.050781 15.632812 18.050781 15.71875 18.050781 C 15.941406 18.050781 16.167969 18.046875 16.390625 18.046875 C 16.53125 18.046875 16.671875 18.046875 16.8125 18.046875 C 17.25 18.046875 17.691406 18.042969 18.128906 18.042969 C 18.636719 18.042969 19.144531 18.042969 19.648438 18.039062 C 20.042969 18.039062 20.433594 18.035156 20.824219 18.035156 C 21.058594 18.035156 21.292969 18.035156 21.527344 18.035156 C 21.789062 18.03125 22.046875 18.03125 22.308594 18.03125 C 22.386719 18.03125 22.464844 18.03125 22.542969 18.03125 C 22.941406 18.03125 23.199219 18.039062 23.5 18.3125 C 23.75 18.601562 23.828125 18.875 23.8125 19.25 C 23.710938 19.625 23.507812 19.855469 23.1875 20.0625 C 22.992188 20.125 22.808594 20.132812 22.605469 20.132812 C 22.535156 20.132812 22.46875 20.132812 22.398438 20.136719 C 22.324219 20.136719 22.253906 20.136719 22.175781 20.136719 C 22.097656 20.136719 22.019531 20.136719 21.941406 20.136719 C 21.726562 20.136719 21.511719 20.136719 21.296875 20.136719 C 21.164062 20.136719 21.03125 20.136719 20.898438 20.136719 C 20.480469 20.140625 20.0625 20.140625 19.640625 20.140625 C 19.160156 20.140625 18.675781 20.140625 18.195312 20.144531 C 17.820312 20.144531 17.449219 20.144531 17.074219 20.144531 C 16.851562 20.144531 16.628906 20.144531 16.40625 20.148438 C 16.15625 20.148438 15.910156 20.148438 15.660156 20.148438 C 15.585938 20.148438 15.515625 20.148438 15.4375 20.148438 C 14.957031 20.148438 14.636719 20.109375 14.261719 19.785156 C 14.027344 19.507812 13.976562 19.308594 13.984375 18.953125 C 14.019531 18.648438 14.152344 18.457031 14.378906 18.261719 C 14.621094 18.082031 14.722656 18.054688 15.019531 18.054688 Z M 15.019531 18.054688 "/>
<path fill="currentColor"  d="M 15.289062 24.175781 C 15.339844 24.175781 15.386719 24.175781 15.4375 24.175781 C 15.597656 24.175781 15.757812 24.171875 15.921875 24.171875 C 16.003906 24.171875 16.003906 24.171875 16.085938 24.171875 C 16.378906 24.171875 16.671875 24.167969 16.960938 24.167969 C 17.261719 24.167969 17.5625 24.167969 17.863281 24.164062 C 18.09375 24.160156 18.328125 24.160156 18.558594 24.160156 C 18.667969 24.160156 18.78125 24.160156 18.890625 24.160156 C 19.046875 24.15625 19.199219 24.15625 19.355469 24.15625 C 19.402344 24.15625 19.445312 24.15625 19.492188 24.15625 C 19.832031 24.160156 20.09375 24.25 20.375 24.4375 C 20.613281 24.691406 20.675781 24.941406 20.699219 25.277344 C 20.675781 25.625 20.523438 25.855469 20.277344 26.089844 C 20.003906 26.265625 19.757812 26.257812 19.445312 26.261719 C 19.394531 26.261719 19.347656 26.261719 19.292969 26.261719 C 19.128906 26.261719 18.964844 26.261719 18.796875 26.261719 C 18.683594 26.261719 18.566406 26.261719 18.453125 26.265625 C 18.210938 26.265625 17.96875 26.265625 17.726562 26.265625 C 17.417969 26.265625 17.109375 26.265625 16.800781 26.269531 C 16.5625 26.269531 16.324219 26.269531 16.085938 26.269531 C 15.972656 26.269531 15.859375 26.269531 15.746094 26.273438 C 15.585938 26.273438 15.425781 26.273438 15.265625 26.273438 C 15.195312 26.273438 15.195312 26.273438 15.125 26.273438 C 14.785156 26.269531 14.527344 26.199219 14.273438 25.96875 C 14.007812 25.628906 13.949219 25.359375 14 24.9375 C 14.113281 24.605469 14.320312 24.417969 14.625 24.25 C 14.851562 24.175781 15.054688 24.175781 15.289062 24.175781 Z M 15.289062 24.175781 "/>
</g>
</svg>
